<?xml version="1.0" encoding="UTF-8" standalone="no"?>
<svg
   xmlns:dc="http://purl.org/dc/elements/1.1/"
   xmlns:cc="http://creativecommons.org/ns#"
   xmlns:rdf="http://www.w3.org/1999/02/22-rdf-syntax-ns#"
   xmlns:svg="http://www.w3.org/2000/svg"
   xmlns="http://www.w3.org/2000/svg"
   xmlns:sodipodi="http://sodipodi.sourceforge.net/DTD/sodipodi-0.dtd"
   xmlns:inkscape="http://www.inkscape.org/namespaces/inkscape"
   inkscape:version="1.0 (4035a4fb49, 2020-05-01)"
   sodipodi:docname="todolist.svg"
   id="svg898"
   version="1.1"
   viewBox="0 0 300 300"
   height="300pt"
   width="300pt">
  <metadata
     id="metadata904">
    <rdf:RDF>
      <cc:Work
         rdf:about="">
        <dc:format>image/svg+xml</dc:format>
        <dc:type
           rdf:resource="http://purl.org/dc/dcmitype/StillImage" />
        <dc:title></dc:title>
      </cc:Work>
    </rdf:RDF>
  </metadata>
  <defs
     id="defs902" />
  <sodipodi:namedview
     inkscape:current-layer="svg898"
     inkscape:window-maximized="1"
     inkscape:window-y="-8"
     inkscape:window-x="-8"
     inkscape:cy="231.14988"
     inkscape:cx="196.01356"
     inkscape:zoom="0.84499914"
     fit-margin-bottom="0"
     fit-margin-right="0"
     fit-margin-left="0"
     fit-margin-top="0"
     showgrid="false"
     id="namedview900"
     inkscape:window-height="705"
     inkscape:window-width="1366"
     inkscape:pageshadow="2"
     inkscape:pageopacity="0"
     guidetolerance="10"
     gridtolerance="10"
     objecttolerance="10"
     borderopacity="1"
     bordercolor="#666666"
     pagecolor="#ffffff" />
  <g
     transform="translate(0,-1.8344727e-5)"
     id="g1035">
    <path
       style="color:#000000;font-style:normal;font-variant:normal;font-weight:normal;font-stretch:normal;font-size:medium;line-height:normal;font-family:sans-serif;font-variant-ligatures:normal;font-variant-position:normal;font-variant-caps:normal;font-variant-numeric:normal;font-variant-alternates:normal;font-variant-east-asian:normal;font-feature-settings:normal;font-variation-settings:normal;text-indent:0;text-align:start;text-decoration:none;text-decoration-line:none;text-decoration-style:solid;text-decoration-color:#000000;letter-spacing:normal;word-spacing:normal;text-transform:none;writing-mode:lr-tb;direction:ltr;text-orientation:mixed;dominant-baseline:auto;baseline-shift:baseline;text-anchor:start;white-space:normal;shape-padding:0;shape-margin:0;inline-size:0;clip-rule:nonzero;display:inline;overflow:visible;visibility:visible;opacity:1;isolation:auto;mix-blend-mode:normal;color-interpolation:sRGB;color-interpolation-filters:linearRGB;solid-color:#000000;solid-opacity:1;vector-effect:none;fill:#2c3e50;fill-opacity:1;fill-rule:nonzero;stroke:none;stroke-width:6;stroke-linecap:butt;stroke-linejoin:miter;stroke-miterlimit:4;stroke-dasharray:none;stroke-dashoffset:0;stroke-opacity:1;color-rendering:auto;image-rendering:auto;shape-rendering:auto;text-rendering:auto;enable-background:accumulate;stop-color:#000000;stop-opacity:1"
       d="m 150.67408,229.66552 -0.22266,0.003 c -0.98597,0.0117 -2.09492,0.0687 -3.28418,0.35156 l -0.28858,0.0703 -0.26952,0.12305 c -4.20777,1.93289 -4.13688,7.98602 0.10107,9.83789 l 0.2168,0.0952 0.23144,0.0601 c 2.1938,0.56844 4.02114,0.31013 5.29102,0.32519 h 0.0205 0.0234 c 22.01678,-0.0599 44.04644,0.0635 66.09669,-0.0615 1.47099,0.15407 3.01324,-0.34554 4.00195,-1.23193 1.08506,-0.97277 1.6157,-2.20491 1.78857,-3.44385 0.17288,-1.23894 0.004,-2.58441 -0.81592,-3.82324 -0.8196,-1.23883 -2.45614,-2.15669 -4.07519,-2.20019 h -0.0264 -0.0278 c -22.11972,-0.19895 -44.22495,0.006 -66.27978,-0.10254 h -0.0484 l -0.0483,10e-4 c -0.67995,0.0186 -1.49284,-0.005 -2.37012,-10e-4 z"
       id="path1029" />
    <path
       id="path1001"
       style="color:#000000;font-style:normal;font-variant:normal;font-weight:normal;font-stretch:normal;font-size:medium;line-height:normal;font-family:sans-serif;font-variant-ligatures:normal;font-variant-position:normal;font-variant-caps:normal;font-variant-numeric:normal;font-variant-alternates:normal;font-variant-east-asian:normal;font-feature-settings:normal;font-variation-settings:normal;text-indent:0;text-align:start;text-decoration:none;text-decoration-line:none;text-decoration-style:solid;text-decoration-color:#000000;letter-spacing:normal;word-spacing:normal;text-transform:none;writing-mode:lr-tb;direction:ltr;text-orientation:mixed;dominant-baseline:auto;baseline-shift:baseline;text-anchor:start;white-space:normal;shape-padding:0;shape-margin:0;inline-size:0;clip-rule:nonzero;display:inline;overflow:visible;visibility:visible;opacity:1;isolation:auto;mix-blend-mode:normal;color-interpolation:sRGB;color-interpolation-filters:linearRGB;solid-color:#000000;solid-opacity:1;vector-effect:none;fill:#2c3e50;fill-opacity:1;fill-rule:nonzero;stroke:none;stroke-width:6;stroke-linecap:butt;stroke-linejoin:miter;stroke-miterlimit:4;stroke-dasharray:none;stroke-dashoffset:0;stroke-opacity:1;color-rendering:auto;image-rendering:auto;shape-rendering:auto;text-rendering:auto;enable-background:accumulate;stop-color:#000000;stop-opacity:1"
       d="m 99.037342,217.62744 c -1.027125,-0.005 -2.063055,0.0922 -3.095213,0.29297 -5.871787,1.05113 -10.975072,5.0911 -13.187992,10.7124 -1.821465,4.30542 -1.769985,9.26102 0.249022,13.52783 2.368665,5.54215 7.600868,9.29934 13.379888,10.22022 l 0.02197,0.004 0.02198,0.001 c 5.891363,0.85008 11.880833,-1.50759 15.694333,-6.01317 3.93708,-4.59852 5.36456,-11.15497 3.21534,-16.98927 -2.30511,-6.99122 -9.05474,-11.72133 -16.29932,-11.75683 z m -0.27246,10.81201 c 3.278288,-0.0833 6.845818,3.28564 6.745608,6.59326 l -0.001,0.0586 v 0.0586 c 0.0273,3.06488 -2.77626,6.20043 -5.816891,6.5127 l -0.0835,0.007 -0.08204,0.0132 c -3.44226,0.54789 -7.369665,-3.04569 -7.274415,-6.52441 l 0.0029,-0.0527 v -0.0513 c -0.01943,-2.89335 2.54442,-5.89557 5.431643,-6.47461 l 0.03223,-0.007 0.03515,-0.009 c 0.334702,-0.0752 0.671955,-0.1159 1.010745,-0.12451 z" />
  </g>
  <path
     d="m 150.47266,3.931782 c -4.98184,-0.1134163 -9.99996,1.7247002 -13.66738,5.1390296 -4.07491,3.6419514 -6.38583,9.0154024 -6.4877,14.4592294 -2.48952,0 -5.1321,-0.209502 -7.43061,0.942934 -3.52097,1.617227 -6.02271,5.310104 -6.00361,9.219469 -0.0445,4.055812 0.0704,8.111682 -0.0249,12.161125 0,2.616857 -0.16568,5.424711 1.17141,7.786887 1.77004,3.57828 5.75568,5.793258 9.72872,5.589511 15.06443,-0.0573 30.12823,0.02 45.19267,-0.03729 5.37379,0.114607 10.23197,-4.743683 10.14284,-10.111105 0.07,-5.125477 0.006,-10.257104 0,-15.382577 0.0892,-4.240454 -2.9284,-8.169292 -6.85051,-9.601872 -2.10749,-0.725843 -4.36824,-0.515807 -6.5585,-0.55401 -0.0637,-8.506375 -6.10524,-16.522228 -14.29326,-18.8334603 -1.60131,-0.4854874 -3.25827,-0.7400483 -4.91893,-0.7778495 z m -0.76105,10.215566 c 2.87096,-0.08973 5.7886,1.041534 7.59009,3.340835 1.45806,1.674534 1.92909,3.896448 2.27291,6.016675 -6.37342,0.03183 -12.75308,0.108686 -19.13285,-0.01865 0.38202,-2.540453 1.1453,-5.196022 3.20185,-6.889656 1.62959,-1.57107 3.83501,-2.379404 6.068,-2.4492 z m 23.2077,19.583336 c -0.006,5.100005 -0.0191,10.193808 0,15.287443 -15.27456,-0.03185 -30.5421,0.02498 -45.81665,-0.01958 -0.0637,-5.087274 -3.1e-4,-10.168303 -0.0133,-15.249208 15.27454,-0.02545 30.55514,0.01318 45.82968,-0.01867 z M 73.522488,38.79137 c -3.938719,0 -7.89272,0.233019 -11.574466,1.75156 -9.684279,3.540077 -16.471107,13.479415 -16.362804,23.781298 -0.0191,68.757752 -0.01274,137.515022 -0.0063,206.272772 -0.01274,8.02248 4.011432,15.91781 10.55039,20.5785 4.4442,3.29813 10.00225,4.94748 15.522481,4.89654 52.209801,-0.0192 104.426281,0.006 156.642431,-0.013 6.27154,0.12098 12.56819,-2.0757 17.28617,-6.24612 5.7176,-4.87716 9.02902,-12.35188 8.838,-19.86501 0.0127,-68.33115 0.0127,-136.66198 0,-204.993138 0.11461,-6.125102 -1.98053,-12.289112 -5.9663,-16.962523 -4.72436,-5.730343 -12.05303,-9.161649 -19.47701,-9.161649 -13.60638,-0.0382 -27.20647,0.0445 -40.81285,-0.03825 0.0573,3.41274 0.0318,6.831744 0.0383,10.244483 13.80375,0 27.60785,-0.07017 41.41161,0.0317 7.90788,0.17191 14.72696,7.366963 14.61872,15.255736 -0.006,68.757751 -0.006,137.515191 0,206.279301 -0.0127,6.01687 -3.91603,11.83609 -9.52539,14.05819 -3.40637,1.59175 -7.25168,1.18497 -10.89363,1.20407 -49.21727,0.0127 -98.42864,-0.0126 -147.64592,0.006 -3.215359,-0.051 -6.538576,0.29279 -9.645695,-0.73868 -4.717983,-1.45168 -8.614617,-5.34867 -10.028101,-10.07939 -1.037829,-3.08165 -0.668476,-6.37374 -0.732147,-9.56364 0.02547,-66.00081 0.007,-132.00117 0.01337,-198.008356 -0.08278,-3.043447 -0.0892,-6.201305 1.209675,-9.028274 2.26667,-5.545698 8.015795,-9.442991 14.019921,-9.430259 13.593648,0 27.193284,0.0071 40.793297,-0.0056 0.006,-3.406369 -0.0255,-6.812924 0.0318,-10.219299 -11.46069,0.06367 -22.921379,-1.23e-4 -34.382066,0.0317 -1.298878,-0.01276 -2.609916,-0.03916 -3.922866,-0.03916 z"
     style="fill:#2c3e50;fill-opacity:1;stroke-width:0.636704"
     id="path870" />
  <g
     transform="translate(0,-42.049879)"
     id="g1045">
    <path
       style="color:#000000;font-style:normal;font-variant:normal;font-weight:normal;font-stretch:normal;font-size:medium;line-height:normal;font-family:sans-serif;font-variant-ligatures:normal;font-variant-position:normal;font-variant-caps:normal;font-variant-numeric:normal;font-variant-alternates:normal;font-variant-east-asian:normal;font-feature-settings:normal;font-variation-settings:normal;text-indent:0;text-align:start;text-decoration:none;text-decoration-line:none;text-decoration-style:solid;text-decoration-color:#000000;letter-spacing:normal;word-spacing:normal;text-transform:none;writing-mode:lr-tb;direction:ltr;text-orientation:mixed;dominant-baseline:auto;baseline-shift:baseline;text-anchor:start;white-space:normal;shape-padding:0;shape-margin:0;inline-size:0;clip-rule:nonzero;display:inline;overflow:visible;visibility:visible;opacity:1;isolation:auto;mix-blend-mode:normal;color-interpolation:sRGB;color-interpolation-filters:linearRGB;solid-color:#000000;solid-opacity:1;vector-effect:none;fill:#2c3e50;fill-opacity:1;fill-rule:nonzero;stroke:none;stroke-width:6;stroke-linecap:butt;stroke-linejoin:miter;stroke-miterlimit:4;stroke-dasharray:none;stroke-dashoffset:0;stroke-opacity:1;color-rendering:auto;image-rendering:auto;shape-rendering:auto;text-rendering:auto;enable-background:accumulate;stop-color:#000000;stop-opacity:1"
       d="m 112.77917,140.58789 c -0.63946,-0.005 -1.31686,0.11813 -1.94922,0.38086 l -0.20899,0.0879 -0.1914,0.11719 c -2.05795,1.24493 -3.27205,2.82899 -4.30469,3.83594 l -0.0156,0.0156 -0.0156,0.0156 c -3.23752,3.25233 -6.488364,6.49348 -9.740234,9.73437 -2.18717,-2.19318 -4.395672,-4.36618 -6.482426,-6.53711 l -0.04687,-0.0469 -0.04883,-0.0469 c -0.364564,-0.34696 -0.946053,-1.00067 -1.921875,-1.61719 -0.949683,-0.6 -2.597872,-1.09036 -4.191406,-0.64062 -4.102244,1.05175 -5.47291,6.52251 -2.126953,9.27148 l -0.212891,-0.19336 c 3.776932,3.76502 7.523464,7.71378 11.589844,11.45313 l -0.212891,-0.2168 c 1.293811,1.45723 3.622991,1.8408 5.070311,1.39453 1.44732,-0.44626 2.381431,-1.25088 3.128911,-2.09179 l -0.10156,0.10937 c 5.21809,-5.31329 10.62802,-10.53551 15.88671,-15.97851 1.72358,-1.67383 1.73848,-4.3587 0.86329,-6.02149 -0.8752,-1.66278 -2.49838,-3.00392 -4.76172,-3.02539 h -0.002 z"
       id="path997" />
    <path
       style="color:#000000;font-style:normal;font-variant:normal;font-weight:normal;font-stretch:normal;font-size:medium;line-height:normal;font-family:sans-serif;font-variant-ligatures:normal;font-variant-position:normal;font-variant-caps:normal;font-variant-numeric:normal;font-variant-alternates:normal;font-variant-east-asian:normal;font-feature-settings:normal;font-variation-settings:normal;text-indent:0;text-align:start;text-decoration:none;text-decoration-line:none;text-decoration-style:solid;text-decoration-color:#000000;letter-spacing:normal;word-spacing:normal;text-transform:none;writing-mode:lr-tb;direction:ltr;text-orientation:mixed;dominant-baseline:auto;baseline-shift:baseline;text-anchor:start;white-space:normal;shape-padding:0;shape-margin:0;inline-size:0;clip-rule:nonzero;display:inline;overflow:visible;visibility:visible;opacity:1;isolation:auto;mix-blend-mode:normal;color-interpolation:sRGB;color-interpolation-filters:linearRGB;solid-color:#000000;solid-opacity:1;vector-effect:none;fill:#2c3e50;fill-opacity:1;fill-rule:nonzero;stroke:none;stroke-width:6;stroke-linecap:butt;stroke-linejoin:miter;stroke-miterlimit:4;stroke-dasharray:none;stroke-dashoffset:0;stroke-opacity:1;color-rendering:auto;image-rendering:auto;shape-rendering:auto;text-rendering:auto;enable-background:accumulate;stop-color:#000000;stop-opacity:1"
       d="m 216.49159,148.70865 -7.19335,0.0352 0.0117,0.0117 c -19.53016,0.002 -39.06164,0.0224 -58.58398,-0.0117 h -0.0312 -0.0312 c -0.90705,0.0172 -2.12328,-0.0233 -3.56055,0.35937 l -0.23828,0.0644 -0.22265,0.0996 c -4.21868,1.90137 -4.19739,7.93941 0.0156,9.83008 l 0.21484,0.0957 0.22657,0.0625 c 2.24705,0.6112 4.10441,0.32604 5.36328,0.34571 h 0.0273 0.0274 c 22.06518,-0.0662 44.16286,0.0661 66.26953,-0.0606 l -0.53711,-0.0449 c 2.78677,0.49178 5.23189,-1.53188 5.9375,-3.67383 0.70561,-2.14195 -0.0251,-5.20157 -2.55664,-6.4707 l -0.33399,-0.16797 -0.36328,-0.0801 c -1.57749,-0.34759 -3.07282,-0.40101 -4.44141,-0.39453 z"
       id="path995" />
  </g>
  <g
     transform="translate(0,-63.418071)"
     id="g1041">
    <path
       id="path1037"
       d="m 150.67408,229.66552 -0.22266,0.003 c -0.98597,0.0117 -2.09492,0.0687 -3.28418,0.35156 l -0.28858,0.0703 -0.26952,0.12305 c -4.20777,1.93289 -4.13688,7.98602 0.10107,9.83789 l 0.2168,0.0952 0.23144,0.0601 c 2.1938,0.56844 4.02114,0.31013 5.29102,0.32519 h 0.0205 0.0234 c 22.01678,-0.0599 44.04644,0.0635 66.09669,-0.0615 1.47099,0.15407 3.01324,-0.34554 4.00195,-1.23193 1.08506,-0.97277 1.6157,-2.20491 1.78857,-3.44385 0.17288,-1.23894 0.004,-2.58441 -0.81592,-3.82324 -0.8196,-1.23883 -2.45614,-2.15669 -4.07519,-2.20019 h -0.0264 -0.0278 c -22.11972,-0.19895 -44.22495,0.006 -66.27978,-0.10254 h -0.0484 l -0.0483,10e-4 c -0.67995,0.0186 -1.49284,-0.005 -2.37012,-10e-4 z"
       style="color:#000000;font-style:normal;font-variant:normal;font-weight:normal;font-stretch:normal;font-size:medium;line-height:normal;font-family:sans-serif;font-variant-ligatures:normal;font-variant-position:normal;font-variant-caps:normal;font-variant-numeric:normal;font-variant-alternates:normal;font-variant-east-asian:normal;font-feature-settings:normal;font-variation-settings:normal;text-indent:0;text-align:start;text-decoration:none;text-decoration-line:none;text-decoration-style:solid;text-decoration-color:#000000;letter-spacing:normal;word-spacing:normal;text-transform:none;writing-mode:lr-tb;direction:ltr;text-orientation:mixed;dominant-baseline:auto;baseline-shift:baseline;text-anchor:start;white-space:normal;shape-padding:0;shape-margin:0;inline-size:0;clip-rule:nonzero;display:inline;overflow:visible;visibility:visible;opacity:1;isolation:auto;mix-blend-mode:normal;color-interpolation:sRGB;color-interpolation-filters:linearRGB;solid-color:#000000;solid-opacity:1;vector-effect:none;fill:#2c3e50;fill-opacity:1;fill-rule:nonzero;stroke:none;stroke-width:6;stroke-linecap:butt;stroke-linejoin:miter;stroke-miterlimit:4;stroke-dasharray:none;stroke-dashoffset:0;stroke-opacity:1;color-rendering:auto;image-rendering:auto;shape-rendering:auto;text-rendering:auto;enable-background:accumulate;stop-color:#000000;stop-opacity:1" />
    <path
       d="m 99.037342,217.62744 c -1.027125,-0.005 -2.063055,0.0922 -3.095213,0.29297 -5.871787,1.05113 -10.975072,5.0911 -13.187992,10.7124 -1.821465,4.30542 -1.769985,9.26102 0.249022,13.52783 2.368665,5.54215 7.600868,9.29934 13.379888,10.22022 l 0.02197,0.004 0.02198,0.001 c 5.891363,0.85008 11.880833,-1.50759 15.694333,-6.01317 3.93708,-4.59852 5.36456,-11.15497 3.21534,-16.98927 -2.30511,-6.99122 -9.05474,-11.72133 -16.29932,-11.75683 z m -0.27246,10.81201 c 3.278288,-0.0833 6.845818,3.28564 6.745608,6.59326 l -0.001,0.0586 v 0.0586 c 0.0273,3.06488 -2.77626,6.20043 -5.816891,6.5127 l -0.0835,0.007 -0.08204,0.0132 c -3.44226,0.54789 -7.369665,-3.04569 -7.274415,-6.52441 l 0.0029,-0.0527 v -0.0513 c -0.01943,-2.89335 2.54442,-5.89557 5.431643,-6.47461 l 0.03223,-0.007 0.03515,-0.009 c 0.334702,-0.0752 0.671955,-0.1159 1.010745,-0.12451 z"
       style="color:#000000;font-style:normal;font-variant:normal;font-weight:normal;font-stretch:normal;font-size:medium;line-height:normal;font-family:sans-serif;font-variant-ligatures:normal;font-variant-position:normal;font-variant-caps:normal;font-variant-numeric:normal;font-variant-alternates:normal;font-variant-east-asian:normal;font-feature-settings:normal;font-variation-settings:normal;text-indent:0;text-align:start;text-decoration:none;text-decoration-line:none;text-decoration-style:solid;text-decoration-color:#000000;letter-spacing:normal;word-spacing:normal;text-transform:none;writing-mode:lr-tb;direction:ltr;text-orientation:mixed;dominant-baseline:auto;baseline-shift:baseline;text-anchor:start;white-space:normal;shape-padding:0;shape-margin:0;inline-size:0;clip-rule:nonzero;display:inline;overflow:visible;visibility:visible;opacity:1;isolation:auto;mix-blend-mode:normal;color-interpolation:sRGB;color-interpolation-filters:linearRGB;solid-color:#000000;solid-opacity:1;vector-effect:none;fill:#2c3e50;fill-opacity:1;fill-rule:nonzero;stroke:none;stroke-width:6;stroke-linecap:butt;stroke-linejoin:miter;stroke-miterlimit:4;stroke-dasharray:none;stroke-dashoffset:0;stroke-opacity:1;color-rendering:auto;image-rendering:auto;shape-rendering:auto;text-rendering:auto;enable-background:accumulate;stop-color:#000000;stop-opacity:1"
       id="path1039" />
  </g>
</svg>
